# xmcd CD database file
#
# Track frame offsets:
#	150
#	68882
#	140317
#
# Disc length: 3567 seconds
#
# Revision: 0
# Processed by: cddbd v1.5.2PL0 Copyright (c) Steve Scherf et al.
# Submitted via: CDex 1.51
#
DISCID=240ded03
DTITLE=Integral-Recuperar la serenidad - Música para hacer ejercicios de relajación
DYEAR=2002
DGENRE=New Age
TTITLE0=The Sea
TTITLE1=The sea
TTITLE2=The healing nature
EXTD=YEAR: 2002
EXTT0=
EXTT1=
EXTT2=
PLAYORDER=
